<mxfile host="app.diagrams.net" modified="2021-05-27T06:09:39.638Z" agent="5.0 (Windows NT 10.0; Win64; x64) AppleWebKit/537.36 (KHTML, like Gecko) Chrome/90.0.4430.212 Safari/537.36" etag="pV58DXft2nwFaPJn4dY7" version="13.1.3" type="github">
  <diagram id="BbXitrbFgc92hHe-Imxq" name="Page-1">
    <mxGraphModel dx="1422" dy="794" grid="1" gridSize="10" guides="1" tooltips="1" connect="1" arrows="1" fold="1" page="1" pageScale="1" pageWidth="827" pageHeight="1169" math="0" shadow="0">
      <root>
        <mxCell id="0" />
        <mxCell id="1" parent="0" />
        <mxCell id="tqMCmb6p78bYomCvV9Cz-27" style="edgeStyle=orthogonalEdgeStyle;rounded=0;orthogonalLoop=1;jettySize=auto;html=1;exitX=1;exitY=0.5;exitDx=0;exitDy=0;entryX=0;entryY=0.5;entryDx=0;entryDy=0;" edge="1" parent="1" source="tqMCmb6p78bYomCvV9Cz-1" target="tqMCmb6p78bYomCvV9Cz-5">
          <mxGeometry relative="1" as="geometry" />
        </mxCell>
        <mxCell id="tqMCmb6p78bYomCvV9Cz-1" value="CAMERA" style="rounded=0;whiteSpace=wrap;html=1;" vertex="1" parent="1">
          <mxGeometry x="100" y="220" width="70" height="40" as="geometry" />
        </mxCell>
        <mxCell id="tqMCmb6p78bYomCvV9Cz-29" style="edgeStyle=orthogonalEdgeStyle;rounded=0;orthogonalLoop=1;jettySize=auto;html=1;exitX=1;exitY=0.5;exitDx=0;exitDy=0;entryX=0;entryY=0.5;entryDx=0;entryDy=0;" edge="1" parent="1" source="tqMCmb6p78bYomCvV9Cz-2" target="tqMCmb6p78bYomCvV9Cz-6">
          <mxGeometry relative="1" as="geometry" />
        </mxCell>
        <mxCell id="tqMCmb6p78bYomCvV9Cz-2" value="Enforce&lt;br&gt;Color Format" style="rounded=0;whiteSpace=wrap;html=1;" vertex="1" parent="1">
          <mxGeometry x="290" y="220" width="90" height="40" as="geometry" />
        </mxCell>
        <mxCell id="tqMCmb6p78bYomCvV9Cz-28" style="edgeStyle=orthogonalEdgeStyle;rounded=0;orthogonalLoop=1;jettySize=auto;html=1;exitX=1;exitY=0.5;exitDx=0;exitDy=0;entryX=0;entryY=0.5;entryDx=0;entryDy=0;" edge="1" parent="1" source="tqMCmb6p78bYomCvV9Cz-5" target="tqMCmb6p78bYomCvV9Cz-2">
          <mxGeometry relative="1" as="geometry" />
        </mxCell>
        <mxCell id="tqMCmb6p78bYomCvV9Cz-5" value="Adjust&lt;br&gt;FrameRate" style="rounded=0;whiteSpace=wrap;html=1;" vertex="1" parent="1">
          <mxGeometry x="190" y="220" width="80" height="40" as="geometry" />
        </mxCell>
        <mxCell id="tqMCmb6p78bYomCvV9Cz-30" style="edgeStyle=orthogonalEdgeStyle;rounded=0;orthogonalLoop=1;jettySize=auto;html=1;exitX=1;exitY=0.5;exitDx=0;exitDy=0;" edge="1" parent="1" source="tqMCmb6p78bYomCvV9Cz-6" target="tqMCmb6p78bYomCvV9Cz-7">
          <mxGeometry relative="1" as="geometry" />
        </mxCell>
        <mxCell id="tqMCmb6p78bYomCvV9Cz-6" value="Resize&lt;br&gt;Video" style="rounded=0;whiteSpace=wrap;html=1;" vertex="1" parent="1">
          <mxGeometry x="400" y="220" width="60" height="40" as="geometry" />
        </mxCell>
        <mxCell id="tqMCmb6p78bYomCvV9Cz-45" style="edgeStyle=orthogonalEdgeStyle;rounded=0;orthogonalLoop=1;jettySize=auto;html=1;exitX=1;exitY=0.5;exitDx=0;exitDy=0;" edge="1" parent="1" source="tqMCmb6p78bYomCvV9Cz-7" target="tqMCmb6p78bYomCvV9Cz-8">
          <mxGeometry relative="1" as="geometry" />
        </mxCell>
        <mxCell id="tqMCmb6p78bYomCvV9Cz-46" style="edgeStyle=orthogonalEdgeStyle;rounded=0;orthogonalLoop=1;jettySize=auto;html=1;exitX=0.75;exitY=1;exitDx=0;exitDy=0;entryX=0;entryY=0.5;entryDx=0;entryDy=0;" edge="1" parent="1" source="tqMCmb6p78bYomCvV9Cz-7" target="tqMCmb6p78bYomCvV9Cz-9">
          <mxGeometry relative="1" as="geometry" />
        </mxCell>
        <mxCell id="tqMCmb6p78bYomCvV9Cz-47" style="edgeStyle=orthogonalEdgeStyle;rounded=0;orthogonalLoop=1;jettySize=auto;html=1;exitX=0.5;exitY=1;exitDx=0;exitDy=0;entryX=0;entryY=0.5;entryDx=0;entryDy=0;" edge="1" parent="1" source="tqMCmb6p78bYomCvV9Cz-7" target="tqMCmb6p78bYomCvV9Cz-10">
          <mxGeometry relative="1" as="geometry" />
        </mxCell>
        <mxCell id="tqMCmb6p78bYomCvV9Cz-75" style="edgeStyle=orthogonalEdgeStyle;rounded=0;orthogonalLoop=1;jettySize=auto;html=1;exitX=0.5;exitY=0;exitDx=0;exitDy=0;entryX=0;entryY=0.5;entryDx=0;entryDy=0;" edge="1" parent="1" source="tqMCmb6p78bYomCvV9Cz-7" target="tqMCmb6p78bYomCvV9Cz-74">
          <mxGeometry relative="1" as="geometry" />
        </mxCell>
        <mxCell id="tqMCmb6p78bYomCvV9Cz-7" value="TEE" style="rounded=0;whiteSpace=wrap;html=1;" vertex="1" parent="1">
          <mxGeometry x="480" y="220" width="40" height="40" as="geometry" />
        </mxCell>
        <mxCell id="tqMCmb6p78bYomCvV9Cz-48" style="edgeStyle=orthogonalEdgeStyle;rounded=0;orthogonalLoop=1;jettySize=auto;html=1;exitX=1;exitY=0.5;exitDx=0;exitDy=0;entryX=0;entryY=0.5;entryDx=0;entryDy=0;" edge="1" parent="1" source="tqMCmb6p78bYomCvV9Cz-8" target="tqMCmb6p78bYomCvV9Cz-11">
          <mxGeometry relative="1" as="geometry" />
        </mxCell>
        <mxCell id="tqMCmb6p78bYomCvV9Cz-8" value="Queue" style="rounded=0;whiteSpace=wrap;html=1;" vertex="1" parent="1">
          <mxGeometry x="540" y="220" width="80" height="40" as="geometry" />
        </mxCell>
        <mxCell id="tqMCmb6p78bYomCvV9Cz-50" style="edgeStyle=orthogonalEdgeStyle;rounded=0;orthogonalLoop=1;jettySize=auto;html=1;exitX=1;exitY=0.5;exitDx=0;exitDy=0;entryX=0;entryY=0.5;entryDx=0;entryDy=0;" edge="1" parent="1" source="tqMCmb6p78bYomCvV9Cz-9" target="tqMCmb6p78bYomCvV9Cz-12">
          <mxGeometry relative="1" as="geometry" />
        </mxCell>
        <mxCell id="tqMCmb6p78bYomCvV9Cz-9" value="Queue" style="rounded=0;whiteSpace=wrap;html=1;" vertex="1" parent="1">
          <mxGeometry x="540" y="290" width="80" height="40" as="geometry" />
        </mxCell>
        <mxCell id="tqMCmb6p78bYomCvV9Cz-54" style="edgeStyle=orthogonalEdgeStyle;rounded=0;orthogonalLoop=1;jettySize=auto;html=1;exitX=1;exitY=0.5;exitDx=0;exitDy=0;" edge="1" parent="1" source="tqMCmb6p78bYomCvV9Cz-10" target="tqMCmb6p78bYomCvV9Cz-13">
          <mxGeometry relative="1" as="geometry" />
        </mxCell>
        <mxCell id="tqMCmb6p78bYomCvV9Cz-10" value="Queue" style="rounded=0;whiteSpace=wrap;html=1;" vertex="1" parent="1">
          <mxGeometry x="540" y="360" width="80" height="40" as="geometry" />
        </mxCell>
        <mxCell id="tqMCmb6p78bYomCvV9Cz-49" style="edgeStyle=orthogonalEdgeStyle;rounded=0;orthogonalLoop=1;jettySize=auto;html=1;exitX=1;exitY=0.5;exitDx=0;exitDy=0;entryX=0;entryY=0.5;entryDx=0;entryDy=0;" edge="1" parent="1" source="tqMCmb6p78bYomCvV9Cz-11" target="tqMCmb6p78bYomCvV9Cz-15">
          <mxGeometry relative="1" as="geometry" />
        </mxCell>
        <mxCell id="tqMCmb6p78bYomCvV9Cz-11" value="Tensor-Convert" style="rounded=0;whiteSpace=wrap;html=1;" vertex="1" parent="1">
          <mxGeometry x="640" y="220" width="60" height="40" as="geometry" />
        </mxCell>
        <mxCell id="tqMCmb6p78bYomCvV9Cz-51" style="edgeStyle=orthogonalEdgeStyle;rounded=0;orthogonalLoop=1;jettySize=auto;html=1;exitX=1;exitY=0.5;exitDx=0;exitDy=0;entryX=0;entryY=0.5;entryDx=0;entryDy=0;" edge="1" parent="1" source="tqMCmb6p78bYomCvV9Cz-12" target="tqMCmb6p78bYomCvV9Cz-14">
          <mxGeometry relative="1" as="geometry" />
        </mxCell>
        <mxCell id="tqMCmb6p78bYomCvV9Cz-12" value="Resize&lt;br&gt;Video" style="rounded=0;whiteSpace=wrap;html=1;" vertex="1" parent="1">
          <mxGeometry x="640" y="290" width="60" height="40" as="geometry" />
        </mxCell>
        <mxCell id="tqMCmb6p78bYomCvV9Cz-55" style="edgeStyle=orthogonalEdgeStyle;rounded=0;orthogonalLoop=1;jettySize=auto;html=1;exitX=1;exitY=0.5;exitDx=0;exitDy=0;entryX=0;entryY=0.5;entryDx=0;entryDy=0;" edge="1" parent="1" source="tqMCmb6p78bYomCvV9Cz-13" target="tqMCmb6p78bYomCvV9Cz-17">
          <mxGeometry relative="1" as="geometry" />
        </mxCell>
        <mxCell id="tqMCmb6p78bYomCvV9Cz-13" value="Tensor-Convert" style="rounded=0;whiteSpace=wrap;html=1;" vertex="1" parent="1">
          <mxGeometry x="640" y="360" width="60" height="40" as="geometry" />
        </mxCell>
        <mxCell id="tqMCmb6p78bYomCvV9Cz-52" style="edgeStyle=orthogonalEdgeStyle;rounded=0;orthogonalLoop=1;jettySize=auto;html=1;exitX=1;exitY=0.5;exitDx=0;exitDy=0;entryX=0;entryY=0.5;entryDx=0;entryDy=0;" edge="1" parent="1" source="tqMCmb6p78bYomCvV9Cz-14" target="tqMCmb6p78bYomCvV9Cz-16">
          <mxGeometry relative="1" as="geometry" />
        </mxCell>
        <mxCell id="tqMCmb6p78bYomCvV9Cz-14" value="Tensor-Convert" style="rounded=0;whiteSpace=wrap;html=1;" vertex="1" parent="1">
          <mxGeometry x="720" y="290" width="60" height="40" as="geometry" />
        </mxCell>
        <mxCell id="tqMCmb6p78bYomCvV9Cz-58" style="edgeStyle=orthogonalEdgeStyle;rounded=0;orthogonalLoop=1;jettySize=auto;html=1;exitX=1;exitY=0.5;exitDx=0;exitDy=0;entryX=0;entryY=0.5;entryDx=0;entryDy=0;" edge="1" parent="1" source="tqMCmb6p78bYomCvV9Cz-15" target="tqMCmb6p78bYomCvV9Cz-70">
          <mxGeometry relative="1" as="geometry" />
        </mxCell>
        <mxCell id="tqMCmb6p78bYomCvV9Cz-15" value="Tensorflow-Lite&lt;br&gt;Human Detection" style="rounded=0;whiteSpace=wrap;html=1;fillColor=#f8cecc;strokeColor=#b85450;" vertex="1" parent="1">
          <mxGeometry x="720" y="220" width="100" height="40" as="geometry" />
        </mxCell>
        <mxCell id="tqMCmb6p78bYomCvV9Cz-53" style="edgeStyle=orthogonalEdgeStyle;rounded=0;orthogonalLoop=1;jettySize=auto;html=1;exitX=1;exitY=0.5;exitDx=0;exitDy=0;entryX=0;entryY=0.5;entryDx=0;entryDy=0;" edge="1" parent="1" source="tqMCmb6p78bYomCvV9Cz-16" target="tqMCmb6p78bYomCvV9Cz-35">
          <mxGeometry relative="1" as="geometry" />
        </mxCell>
        <mxCell id="tqMCmb6p78bYomCvV9Cz-16" value="Normalize&lt;br&gt;Values" style="rounded=0;whiteSpace=wrap;html=1;" vertex="1" parent="1">
          <mxGeometry x="800" y="290" width="70" height="40" as="geometry" />
        </mxCell>
        <mxCell id="tqMCmb6p78bYomCvV9Cz-56" style="edgeStyle=orthogonalEdgeStyle;rounded=0;orthogonalLoop=1;jettySize=auto;html=1;exitX=1;exitY=0.5;exitDx=0;exitDy=0;entryX=0;entryY=0.5;entryDx=0;entryDy=0;" edge="1" parent="1" source="tqMCmb6p78bYomCvV9Cz-17" target="tqMCmb6p78bYomCvV9Cz-18">
          <mxGeometry relative="1" as="geometry" />
        </mxCell>
        <mxCell id="tqMCmb6p78bYomCvV9Cz-17" value="Transpose&lt;br&gt;Dimensions" style="rounded=0;whiteSpace=wrap;html=1;" vertex="1" parent="1">
          <mxGeometry x="720" y="360" width="80" height="40" as="geometry" />
        </mxCell>
        <mxCell id="tqMCmb6p78bYomCvV9Cz-57" style="edgeStyle=orthogonalEdgeStyle;rounded=0;orthogonalLoop=1;jettySize=auto;html=1;exitX=1;exitY=0.5;exitDx=0;exitDy=0;entryX=0;entryY=0.5;entryDx=0;entryDy=0;" edge="1" parent="1" source="tqMCmb6p78bYomCvV9Cz-18" target="tqMCmb6p78bYomCvV9Cz-36">
          <mxGeometry relative="1" as="geometry" />
        </mxCell>
        <mxCell id="tqMCmb6p78bYomCvV9Cz-18" value="Data Type&lt;br&gt;Convert" style="rounded=0;whiteSpace=wrap;html=1;" vertex="1" parent="1">
          <mxGeometry x="820" y="360" width="70" height="40" as="geometry" />
        </mxCell>
        <mxCell id="tqMCmb6p78bYomCvV9Cz-19" value="Vivante-NPU&lt;br&gt;Segmentation" style="rounded=0;whiteSpace=wrap;html=1;" vertex="1" parent="1">
          <mxGeometry x="910" y="290" width="100" height="40" as="geometry" />
        </mxCell>
        <mxCell id="tqMCmb6p78bYomCvV9Cz-20" value="Vivante-NPU&lt;br&gt;Object Detection" style="rounded=0;whiteSpace=wrap;html=1;" vertex="1" parent="1">
          <mxGeometry x="910" y="360" width="100" height="40" as="geometry" />
        </mxCell>
        <mxCell id="tqMCmb6p78bYomCvV9Cz-61" style="edgeStyle=orthogonalEdgeStyle;rounded=0;orthogonalLoop=1;jettySize=auto;html=1;exitX=0.5;exitY=0;exitDx=0;exitDy=0;entryX=1;entryY=0.5;entryDx=0;entryDy=0;" edge="1" parent="1" source="tqMCmb6p78bYomCvV9Cz-67" target="tqMCmb6p78bYomCvV9Cz-70">
          <mxGeometry relative="1" as="geometry">
            <Array as="points">
              <mxPoint x="1171" y="300" />
              <mxPoint x="1050" y="300" />
              <mxPoint x="1050" y="240" />
            </Array>
          </mxGeometry>
        </mxCell>
        <mxCell id="tqMCmb6p78bYomCvV9Cz-68" style="edgeStyle=orthogonalEdgeStyle;rounded=0;orthogonalLoop=1;jettySize=auto;html=1;exitX=0.5;exitY=0;exitDx=0;exitDy=0;entryX=0.5;entryY=1;entryDx=0;entryDy=0;" edge="1" parent="1" source="tqMCmb6p78bYomCvV9Cz-21" target="tqMCmb6p78bYomCvV9Cz-67">
          <mxGeometry relative="1" as="geometry" />
        </mxCell>
        <mxCell id="tqMCmb6p78bYomCvV9Cz-21" value="Tensorflow-Lite&lt;br&gt;Object Tracking" style="rounded=0;whiteSpace=wrap;html=1;fillColor=#f8cecc;strokeColor=#b85450;" vertex="1" parent="1">
          <mxGeometry x="1121" y="385" width="100" height="40" as="geometry" />
        </mxCell>
        <mxCell id="tqMCmb6p78bYomCvV9Cz-64" style="edgeStyle=orthogonalEdgeStyle;rounded=0;orthogonalLoop=1;jettySize=auto;html=1;exitX=1;exitY=0.5;exitDx=0;exitDy=0;entryX=0;entryY=0.5;entryDx=0;entryDy=0;" edge="1" parent="1" source="tqMCmb6p78bYomCvV9Cz-22" target="tqMCmb6p78bYomCvV9Cz-63">
          <mxGeometry relative="1" as="geometry" />
        </mxCell>
        <mxCell id="tqMCmb6p78bYomCvV9Cz-22" value="Tensorflow-Lite&lt;br&gt;Path Planning" style="rounded=0;whiteSpace=wrap;html=1;fillColor=#f8cecc;strokeColor=#b85450;" vertex="1" parent="1">
          <mxGeometry x="1000" y="170" width="100" height="40" as="geometry" />
        </mxCell>
        <mxCell id="tqMCmb6p78bYomCvV9Cz-24" value="MQTT-Sink&lt;br&gt;(to another device)" style="rounded=0;whiteSpace=wrap;html=1;" vertex="1" parent="1">
          <mxGeometry x="1230" y="290" width="130" height="40" as="geometry" />
        </mxCell>
        <mxCell id="tqMCmb6p78bYomCvV9Cz-25" value="App-Sink&lt;br&gt;(to another thread)" style="rounded=0;whiteSpace=wrap;html=1;fillColor=#fff2cc;strokeColor=#d6b656;" vertex="1" parent="1">
          <mxGeometry x="1230" y="220" width="130" height="40" as="geometry" />
        </mxCell>
        <mxCell id="tqMCmb6p78bYomCvV9Cz-26" value="App-Sink&lt;br&gt;(to another thread)" style="rounded=0;whiteSpace=wrap;html=1;fillColor=#fff2cc;strokeColor=#d6b656;" vertex="1" parent="1">
          <mxGeometry x="1300" y="385" width="130" height="40" as="geometry" />
        </mxCell>
        <mxCell id="tqMCmb6p78bYomCvV9Cz-37" style="edgeStyle=orthogonalEdgeStyle;rounded=0;orthogonalLoop=1;jettySize=auto;html=1;exitX=1;exitY=0.5;exitDx=0;exitDy=0;entryX=0;entryY=0.5;entryDx=0;entryDy=0;" edge="1" parent="1" source="tqMCmb6p78bYomCvV9Cz-31" target="tqMCmb6p78bYomCvV9Cz-32">
          <mxGeometry relative="1" as="geometry" />
        </mxCell>
        <mxCell id="tqMCmb6p78bYomCvV9Cz-31" value="Radar" style="rounded=0;whiteSpace=wrap;html=1;" vertex="1" parent="1">
          <mxGeometry x="100" y="410" width="70" height="40" as="geometry" />
        </mxCell>
        <mxCell id="tqMCmb6p78bYomCvV9Cz-38" style="edgeStyle=orthogonalEdgeStyle;rounded=0;orthogonalLoop=1;jettySize=auto;html=1;exitX=1;exitY=0.5;exitDx=0;exitDy=0;entryX=0;entryY=0.5;entryDx=0;entryDy=0;" edge="1" parent="1" source="tqMCmb6p78bYomCvV9Cz-32" target="tqMCmb6p78bYomCvV9Cz-33">
          <mxGeometry relative="1" as="geometry" />
        </mxCell>
        <mxCell id="tqMCmb6p78bYomCvV9Cz-32" value="Normalize&lt;br&gt;Values" style="rounded=0;whiteSpace=wrap;html=1;" vertex="1" parent="1">
          <mxGeometry x="190" y="410" width="70" height="40" as="geometry" />
        </mxCell>
        <mxCell id="tqMCmb6p78bYomCvV9Cz-39" style="edgeStyle=orthogonalEdgeStyle;rounded=0;orthogonalLoop=1;jettySize=auto;html=1;exitX=1;exitY=0.5;exitDx=0;exitDy=0;entryX=0;entryY=0.5;entryDx=0;entryDy=0;" edge="1" parent="1" source="tqMCmb6p78bYomCvV9Cz-33" target="tqMCmb6p78bYomCvV9Cz-34">
          <mxGeometry relative="1" as="geometry" />
        </mxCell>
        <mxCell id="tqMCmb6p78bYomCvV9Cz-33" value="Aggregate&lt;br&gt;Frames" style="rounded=0;whiteSpace=wrap;html=1;" vertex="1" parent="1">
          <mxGeometry x="280" y="410" width="70" height="40" as="geometry" />
        </mxCell>
        <mxCell id="tqMCmb6p78bYomCvV9Cz-42" style="edgeStyle=orthogonalEdgeStyle;rounded=0;orthogonalLoop=1;jettySize=auto;html=1;exitX=1;exitY=0.5;exitDx=0;exitDy=0;entryX=0;entryY=0.5;entryDx=0;entryDy=0;" edge="1" parent="1" source="tqMCmb6p78bYomCvV9Cz-34" target="tqMCmb6p78bYomCvV9Cz-41">
          <mxGeometry relative="1" as="geometry" />
        </mxCell>
        <mxCell id="tqMCmb6p78bYomCvV9Cz-34" value="External&lt;br&gt;Binary (.so)" style="rounded=0;whiteSpace=wrap;html=1;fillColor=#f8cecc;strokeColor=#b85450;" vertex="1" parent="1">
          <mxGeometry x="370" y="410" width="70" height="40" as="geometry" />
        </mxCell>
        <mxCell id="tqMCmb6p78bYomCvV9Cz-59" style="edgeStyle=orthogonalEdgeStyle;rounded=0;orthogonalLoop=1;jettySize=auto;html=1;exitX=0.5;exitY=0;exitDx=0;exitDy=0;entryX=0.5;entryY=1;entryDx=0;entryDy=0;" edge="1" parent="1" source="tqMCmb6p78bYomCvV9Cz-35" target="tqMCmb6p78bYomCvV9Cz-70">
          <mxGeometry relative="1" as="geometry" />
        </mxCell>
        <mxCell id="tqMCmb6p78bYomCvV9Cz-35" value="Vivante-NPU&lt;br&gt;Segmentation" style="rounded=0;whiteSpace=wrap;html=1;fillColor=#f8cecc;strokeColor=#b85450;" vertex="1" parent="1">
          <mxGeometry x="910" y="290" width="100" height="40" as="geometry" />
        </mxCell>
        <mxCell id="tqMCmb6p78bYomCvV9Cz-44" style="edgeStyle=orthogonalEdgeStyle;rounded=0;orthogonalLoop=1;jettySize=auto;html=1;exitX=1;exitY=0.5;exitDx=0;exitDy=0;entryX=0;entryY=0.25;entryDx=0;entryDy=0;" edge="1" parent="1" source="tqMCmb6p78bYomCvV9Cz-36" target="tqMCmb6p78bYomCvV9Cz-40">
          <mxGeometry relative="1" as="geometry" />
        </mxCell>
        <mxCell id="tqMCmb6p78bYomCvV9Cz-36" value="Vivante-NPU&lt;br&gt;Object Detection" style="rounded=0;whiteSpace=wrap;html=1;fillColor=#f8cecc;strokeColor=#b85450;" vertex="1" parent="1">
          <mxGeometry x="910" y="360" width="100" height="40" as="geometry" />
        </mxCell>
        <mxCell id="tqMCmb6p78bYomCvV9Cz-60" style="edgeStyle=orthogonalEdgeStyle;rounded=0;orthogonalLoop=1;jettySize=auto;html=1;exitX=1;exitY=0.5;exitDx=0;exitDy=0;entryX=0;entryY=0.5;entryDx=0;entryDy=0;" edge="1" parent="1" source="tqMCmb6p78bYomCvV9Cz-40" target="tqMCmb6p78bYomCvV9Cz-21">
          <mxGeometry relative="1" as="geometry" />
        </mxCell>
        <mxCell id="tqMCmb6p78bYomCvV9Cz-40" value="Mux" style="rounded=0;whiteSpace=wrap;html=1;" vertex="1" parent="1">
          <mxGeometry x="1060" y="355" width="40" height="100" as="geometry" />
        </mxCell>
        <mxCell id="tqMCmb6p78bYomCvV9Cz-43" style="edgeStyle=orthogonalEdgeStyle;rounded=0;orthogonalLoop=1;jettySize=auto;html=1;exitX=1;exitY=0.5;exitDx=0;exitDy=0;entryX=0;entryY=0.75;entryDx=0;entryDy=0;" edge="1" parent="1" source="tqMCmb6p78bYomCvV9Cz-41" target="tqMCmb6p78bYomCvV9Cz-40">
          <mxGeometry relative="1" as="geometry" />
        </mxCell>
        <mxCell id="tqMCmb6p78bYomCvV9Cz-41" value="Queue" style="rounded=0;whiteSpace=wrap;html=1;" vertex="1" parent="1">
          <mxGeometry x="540" y="410" width="80" height="40" as="geometry" />
        </mxCell>
        <mxCell id="tqMCmb6p78bYomCvV9Cz-65" style="edgeStyle=orthogonalEdgeStyle;rounded=0;orthogonalLoop=1;jettySize=auto;html=1;exitX=1;exitY=0.5;exitDx=0;exitDy=0;entryX=0;entryY=0.5;entryDx=0;entryDy=0;" edge="1" parent="1" source="tqMCmb6p78bYomCvV9Cz-63" target="tqMCmb6p78bYomCvV9Cz-25">
          <mxGeometry relative="1" as="geometry" />
        </mxCell>
        <mxCell id="tqMCmb6p78bYomCvV9Cz-66" style="edgeStyle=orthogonalEdgeStyle;rounded=0;orthogonalLoop=1;jettySize=auto;html=1;exitX=1;exitY=0.75;exitDx=0;exitDy=0;entryX=0;entryY=0.25;entryDx=0;entryDy=0;" edge="1" parent="1" source="tqMCmb6p78bYomCvV9Cz-63" target="tqMCmb6p78bYomCvV9Cz-24">
          <mxGeometry relative="1" as="geometry" />
        </mxCell>
        <mxCell id="tqMCmb6p78bYomCvV9Cz-73" style="edgeStyle=orthogonalEdgeStyle;rounded=0;orthogonalLoop=1;jettySize=auto;html=1;exitX=0.5;exitY=0;exitDx=0;exitDy=0;entryX=0.5;entryY=1;entryDx=0;entryDy=0;" edge="1" parent="1" source="tqMCmb6p78bYomCvV9Cz-63" target="tqMCmb6p78bYomCvV9Cz-72">
          <mxGeometry relative="1" as="geometry" />
        </mxCell>
        <mxCell id="tqMCmb6p78bYomCvV9Cz-63" value="TEE" style="rounded=0;whiteSpace=wrap;html=1;" vertex="1" parent="1">
          <mxGeometry x="1151" y="220" width="40" height="40" as="geometry" />
        </mxCell>
        <mxCell id="tqMCmb6p78bYomCvV9Cz-69" style="edgeStyle=orthogonalEdgeStyle;rounded=0;orthogonalLoop=1;jettySize=auto;html=1;exitX=1;exitY=0.5;exitDx=0;exitDy=0;entryX=0;entryY=0.5;entryDx=0;entryDy=0;" edge="1" parent="1" source="tqMCmb6p78bYomCvV9Cz-67" target="tqMCmb6p78bYomCvV9Cz-26">
          <mxGeometry relative="1" as="geometry" />
        </mxCell>
        <mxCell id="tqMCmb6p78bYomCvV9Cz-67" value="TEE" style="rounded=0;whiteSpace=wrap;html=1;" vertex="1" parent="1">
          <mxGeometry x="1151" y="330" width="40" height="40" as="geometry" />
        </mxCell>
        <mxCell id="tqMCmb6p78bYomCvV9Cz-71" style="edgeStyle=orthogonalEdgeStyle;rounded=0;orthogonalLoop=1;jettySize=auto;html=1;exitX=0.5;exitY=0;exitDx=0;exitDy=0;entryX=0;entryY=0.5;entryDx=0;entryDy=0;" edge="1" parent="1" source="tqMCmb6p78bYomCvV9Cz-70" target="tqMCmb6p78bYomCvV9Cz-22">
          <mxGeometry relative="1" as="geometry" />
        </mxCell>
        <mxCell id="tqMCmb6p78bYomCvV9Cz-70" value="Mux" style="rounded=0;whiteSpace=wrap;html=1;" vertex="1" parent="1">
          <mxGeometry x="900" y="225" width="110" height="30" as="geometry" />
        </mxCell>
        <mxCell id="tqMCmb6p78bYomCvV9Cz-78" value="" style="edgeStyle=orthogonalEdgeStyle;rounded=0;orthogonalLoop=1;jettySize=auto;html=1;entryX=0;entryY=0.75;entryDx=0;entryDy=0;" edge="1" parent="1" source="tqMCmb6p78bYomCvV9Cz-72" target="tqMCmb6p78bYomCvV9Cz-76">
          <mxGeometry relative="1" as="geometry">
            <mxPoint x="1171" y="60" as="targetPoint" />
          </mxGeometry>
        </mxCell>
        <mxCell id="tqMCmb6p78bYomCvV9Cz-72" value="Decoder&lt;br&gt;(Tensor2Video)" style="rounded=0;whiteSpace=wrap;html=1;" vertex="1" parent="1">
          <mxGeometry x="1121" y="140" width="100" height="40" as="geometry" />
        </mxCell>
        <mxCell id="tqMCmb6p78bYomCvV9Cz-79" style="edgeStyle=orthogonalEdgeStyle;rounded=0;orthogonalLoop=1;jettySize=auto;html=1;exitX=1;exitY=0.5;exitDx=0;exitDy=0;entryX=0;entryY=0.5;entryDx=0;entryDy=0;" edge="1" parent="1" source="tqMCmb6p78bYomCvV9Cz-74" target="tqMCmb6p78bYomCvV9Cz-76">
          <mxGeometry relative="1" as="geometry" />
        </mxCell>
        <mxCell id="tqMCmb6p78bYomCvV9Cz-74" value="Queue" style="rounded=0;whiteSpace=wrap;html=1;" vertex="1" parent="1">
          <mxGeometry x="540" y="160" width="80" height="40" as="geometry" />
        </mxCell>
        <mxCell id="tqMCmb6p78bYomCvV9Cz-81" style="edgeStyle=orthogonalEdgeStyle;rounded=0;orthogonalLoop=1;jettySize=auto;html=1;exitX=1;exitY=0.5;exitDx=0;exitDy=0;entryX=0.75;entryY=0;entryDx=0;entryDy=0;" edge="1" parent="1" source="tqMCmb6p78bYomCvV9Cz-76" target="tqMCmb6p78bYomCvV9Cz-80">
          <mxGeometry relative="1" as="geometry" />
        </mxCell>
        <mxCell id="tqMCmb6p78bYomCvV9Cz-76" value="Video&lt;br&gt;Compositor" style="rounded=0;whiteSpace=wrap;html=1;" vertex="1" parent="1">
          <mxGeometry x="1245" y="70" width="100" height="40" as="geometry" />
        </mxCell>
        <mxCell id="tqMCmb6p78bYomCvV9Cz-80" value="Video Sink&lt;br&gt;(to display)" style="rounded=0;whiteSpace=wrap;html=1;fillColor=#fff2cc;strokeColor=#d6b656;" vertex="1" parent="1">
          <mxGeometry x="1280" y="140" width="130" height="40" as="geometry" />
        </mxCell>
      </root>
    </mxGraphModel>
  </diagram>
</mxfile>
